<svg xmlns="http://www.w3.org/2000/svg"  viewBox="0 0 50 50" width="50px" height="50px"><path d="M 13 4 C 8.0414839 4 4 8.0414839 4 13 L 4 37 C 4 41.958516 8.0414839 46 13 46 L 37 46 C 41.958516 46 46 41.958516 46 37 L 46 13 C 46 8.0414839 41.958516 4 37 4 L 13 4 z M 13 6 L 37 6 C 40.877484 6 44 9.1225161 44 13 L 44 37 C 44 40.877484 40.877484 44 37 44 L 13 44 C 9.1225161 44 6 40.877484 6 37 L 6 13 C 6 9.1225161 9.1225161 6 13 6 z M 25.029297 12.585938 C 22.524062 12.539203 20.0155 13.044266 17.78125 14.134766 C 14.79025 15.561766 12.365 18.044 11 21 C 12.515 18.115 15.030328 15.815984 17.986328 14.583984 C 20.932328 13.326984 24.257938 13.112063 27.335938 13.789062 C 30.414938 14.456063 33.262313 16.104953 35.195312 18.501953 C 37.154312 20.883953 38.094 23.961 38 27 C 38 27.015 37.999 27.035781 38 27.050781 C 38.01 27.603781 38.467531 28.04125 39.019531 28.03125 C 39.571531 28.02125 40.011 27.563719 40 27.011719 L 40 27 C 39.934 23.542 38.660078 20.069344 36.330078 17.527344 C 34.027078 14.960344 30.825437 13.355406 27.523438 12.816406 C 26.698937 12.679656 25.864375 12.601516 25.029297 12.585938 z M 24.669922 15.384766 C 23.422172 15.380891 22.1805 15.561781 21 15.925781 C 23.405 15.360781 25.954078 15.550594 28.205078 16.433594 C 30.454078 17.320594 32.404203 18.902297 33.658203 20.904297 C 34.929203 22.897297 35.475938 25.288125 35.210938 27.578125 C 34.970937 29.869125 33.922969 32.030969 32.292969 33.542969 C 32.277969 33.556969 32.260094 33.573844 32.246094 33.589844 C 31.866094 33.991844 31.885109 34.626859 32.287109 35.005859 C 32.689109 35.385859 33.322172 35.366844 33.701172 34.964844 L 33.707031 34.957031 C 35.582031 32.972031 36.622609 30.323406 36.724609 27.691406 C 36.853609 25.052406 36.031094 22.408984 34.496094 20.333984 C 32.975094 18.242984 30.777 16.719031 28.375 15.957031 C 27.1715 15.577531 25.917672 15.388641 24.669922 15.384766 z M 28 19 C 29.733 19.749 31.11975 21.155984 31.84375 22.833984 C 32.58475 24.497984 32.757094 26.400953 32.371094 28.126953 C 31.982094 29.851953 31.023875 31.424516 29.671875 32.478516 C 28.328875 33.541516 26.643 34.075 25 34 C 24.972 33.999 24.937203 33.999 24.908203 34 C 24.356203 34.025 23.928125 34.494875 23.953125 35.046875 C 23.978125 35.598875 24.448 36.025 25 36 C 27.127 35.912 29.169156 35.027375 30.660156 33.609375 C 32.166156 32.200375 33.100281 30.271828 33.363281 28.298828 C 33.623281 26.317828 33.236922 24.309422 32.294922 22.607422 C 31.366922 20.899422 29.79 19.588 28 19 z M 29 24 C 29.693 25.049 29.653641 26.396203 29.431641 27.533203 C 29.157641 28.681203 28.393781 29.652891 27.425781 30.212891 C 26.458781 30.784891 25.302625 30.931172 24.265625 30.701172 C 23.227625 30.473172 22.327063 29.837719 21.789062 29.011719 C 21.764062 28.974719 21.733125 28.933438 21.703125 28.898438 C 21.339125 28.480437 20.705109 28.436781 20.287109 28.800781 C 19.869109 29.164781 19.827406 29.798797 20.191406 30.216797 L 20.210938 30.238281 C 21.204937 31.379281 22.616875 32.0715 24.046875 32.1875 C 25.470875 32.3075 26.910187 31.894063 27.992188 31.039062 C 29.079187 30.197063 29.798687 28.930187 29.929688 27.617188 C 29.995687 26.955187 29.931641 26.322266 29.806641 25.697266 C 29.678641 25.074266 29.419 24.466 29 24 z"/></svg>